<svg fill="#000000" xmlns="http://www.w3.org/2000/svg" viewBox="0 0 50 50" width="50px" height="50px"><path d="M 13 3 C 7.4886661 3 3 7.4886661 3 13 L 3 37 C 3 42.511334 7.4886661 47 13 47 L 37 47 C 42.511334 47 47 42.511334 47 37 L 47 13 C 47 7.4886661 42.511334 3 37 3 L 13 3 z M 13 5 L 37 5 C 41.430666 5 45 8.5693339 45 13 L 45 37 C 45 41.430666 41.430666 45 37 45 L 13 45 C 8.5693339 45 5 41.430666 5 37 L 5 13 C 5 8.5693339 8.5693339 5 13 5 z M 25 9 C 23.679348 9 22.358392 9.4256774 21.261719 10.275391 L 12.162109 17.322266 C 10.67788 18.470917 10.627492 20.747765 12.060547 21.958984 A 1.0001 1.0001 0 0 0 12.0625 21.958984 L 15.421875 24.796875 L 12.160156 27.322266 C 10.677249 28.471038 10.627234 30.747546 12.060547 31.958984 L 21.0625 39.564453 C 23.327838 41.47714 26.672162 41.47714 28.9375 39.564453 L 37.9375 31.958984 C 39.370272 30.748124 39.322015 28.470835 37.837891 27.322266 L 34.578125 24.798828 L 37.939453 21.958984 C 39.372223 20.748124 39.323967 18.470835 37.839844 17.322266 L 28.738281 10.273438 L 28.738281 10.275391 C 27.641562 9.4256304 26.320652 9 25 9 z M 25 10.998047 C 25.887848 10.998047 26.776346 11.284182 27.513672 11.855469 L 36.615234 18.904297 C 37.138676 19.309391 37.15238 20.00623 36.648438 20.431641 L 32.960938 23.546875 L 28.738281 20.275391 C 27.641564 19.425678 26.320652 19 25 19 C 23.680217 19 22.359918 19.424841 21.263672 20.273438 L 21.259766 20.269531 L 18.650391 22.289062 L 20.220703 23.619141 L 22.490234 21.859375 L 22.486328 21.855469 C 23.960981 20.712894 26.037066 20.712894 27.511719 21.855469 A 1.0001 1.0001 0 0 0 27.513672 21.855469 L 31.400391 24.865234 L 27.648438 28.035156 C 26.123776 29.32247 23.878177 29.32247 22.353516 28.035156 L 13.351562 20.431641 C 12.846618 20.00486 12.862945 19.309645 13.386719 18.904297 L 22.486328 11.855469 A 1.0001 1.0001 0 0 0 22.488281 11.855469 C 23.225562 11.284182 24.112152 10.998047 25 10.998047 z M 16.984375 26.117188 L 21.0625 29.564453 C 23.327838 31.47714 26.672162 31.47714 28.9375 29.564453 L 33.015625 26.119141 L 36.613281 28.904297 C 37.136723 29.309391 37.152374 30.00623 36.648438 30.431641 L 27.646484 38.035156 C 26.121823 39.32247 23.876224 39.32247 22.351562 38.035156 L 13.351562 30.431641 C 12.846877 30.005079 12.861677 29.309524 13.384766 28.904297 L 16.984375 26.117188 z"/></svg>